<?xml version="1.0"?>
<svg xmlns="http://www.w3.org/2000/svg" viewBox="0 0 64 64" width="512" height="512"><g id="Loan-Cash"><path d="M51.859,30.482a4.02,4.02,0,0,1,.629.034L54,24.872V13a1,1,0,0,0-1-1H11a1,1,0,0,0-1,1V24.859l1.515,5.656a3.976,3.976,0,0,1,.625-.034A.978.978,0,0,1,12,30V26h2v3h3v2H14.037a4,4,0,0,1,.853.647L17.243,34H46.756l2.357-2.357A3.965,3.965,0,0,1,49.959,31H47V29h3V26h2v4A.972.972,0,0,1,51.859,30.482ZM17,17H14v3H12V16a1,1,0,0,1,1-1h4Zm5,7H20V22h2Zm10,6a7,7,0,1,1,7-7A7.008,7.008,0,0,1,32,30Zm12-6H42V22h2Zm6-4V17H47V15h4a1,1,0,0,1,1,1v4Z"/><path d="M4,25.661l5.6,20.911,4.875,3.587a.991.991,0,0,1,.373.547l.259.965,4.83-1.294,4.83-1.294-1.729-6.455-9.568-9.566a2,2,0,0,0-1.935-.518,1.25,1.25,0,0,0-.244.086.769.769,0,0,1-.091.045,1.868,1.868,0,0,0-.569.393,2,2,0,0,0,.007,2.823l8.083,8.083-1.415,1.414L9.229,37.305a4.012,4.012,0,0,1,0-5.658,4.236,4.236,0,0,1,.425-.352l-1.787-6.67A2,2,0,1,0,4,25.661Z"/><path d="M59.793,24.133a1.952,1.952,0,0,0-1.2-.915,1.918,1.918,0,0,0-1.51.193,1.946,1.946,0,0,0-.94,1.21L54.349,31.3a4.24,4.24,0,0,1,.4.33A4.049,4.049,0,0,1,55.818,33.5a4,4,0,0,1-1.051,3.8l-8.079,8.08-1.415-1.414,8.08-8.08a1.974,1.974,0,0,0,.528-1.9,2.05,2.05,0,0,0-.528-.939,1.77,1.77,0,0,0-.541-.372,1.666,1.666,0,0,0-.334-.136,1.983,1.983,0,0,0-1.951.507l-9.571,9.571-1.731,6.455,9.659,2.588.261-.97a.991.991,0,0,1,.374-.547L54.4,46.572l5.6-20.91A2,2,0,0,0,59.793,24.133Z"/><path d="M54,9a1,1,0,0,0-1-1H11a1,1,0,0,0-1,1v1.184A2.966,2.966,0,0,1,11,10H53a2.966,2.966,0,0,1,1,.184Z"/><circle cx="32" cy="23" r="5"/><path d="M50.3,54.121l-.934-.25c-.012,0-.024,0-.036-.005l-11.59-3.11h0l-.962-.258-1.552,5.8,13.523,3.624Z"/><polygon points="28.775 56.293 27.223 50.497 26.257 50.756 20.461 52.309 13.699 54.121 15.252 59.917 28.775 56.293"/><path d="M54,5a1,1,0,0,0-1-1H11a1,1,0,0,0-1,1V6.184A2.966,2.966,0,0,1,11,6H53a2.966,2.966,0,0,1,1,.184Z"/></g></svg>
